<svg width="126" height="52" viewBox="0 0 126 52" fill="none" xmlns="http://www.w3.org/2000/svg">
<path d="M2 26C2 12.7452 12.7452 2 26 2H100C113.255 2 124 12.7452 124 26V26C124 39.2548 113.255 50 100 50H26C12.7452 50 2 39.2548 2 26V26Z" fill="white"/>
<path fill-rule="evenodd" clip-rule="evenodd" d="M28.4 14H47.6C48.92 14 50 15.08 50 16.4V30.8C50 32.12 48.92 33.2 47.6 33.2H30.8L26 38L26.012 16.4C26.012 15.08 27.08 14 28.4 14ZM30.8 28.4H45.2V26H30.8V28.4ZM45.2 24.8H30.8V22.4H45.2V24.8ZM30.8 21.2H45.2V18.8H30.8V21.2Z" fill="#191F1C"/>
<path d="M67.984 31.192C64.4427 31.192 62.672 29.2987 62.672 25.512C62.672 23.6133 63.136 22.1947 64.064 21.256C64.992 20.3067 66.2987 19.832 67.984 19.832C68.912 19.832 69.744 19.992 70.48 20.312C71.2267 20.6213 71.8133 21.1013 72.24 21.752C72.6773 22.392 72.896 23.176 72.896 24.104H70.512C70.512 23.3893 70.2827 22.8293 69.824 22.424C69.3653 22.008 68.768 21.8 68.032 21.8C67.0293 21.8 66.2827 22.0987 65.792 22.696C65.3013 23.2933 65.056 24.152 65.056 25.272V25.752C65.056 28.0667 66.048 29.224 68.032 29.224C68.8107 29.224 69.4293 29.0213 69.888 28.616C70.3573 28.2107 70.592 27.6507 70.592 26.936H72.896C72.896 27.8747 72.6827 28.664 72.256 29.304C71.8293 29.9333 71.248 30.408 70.512 30.728C69.776 31.0373 68.9333 31.192 67.984 31.192ZM75.1829 19.432H77.3749V23.56H77.4869C78.1269 22.7813 78.9482 22.392 79.9509 22.392C80.8149 22.392 81.4922 22.6267 81.9829 23.096C82.4842 23.5653 82.7349 24.3173 82.7349 25.352V31H80.5429V25.816C80.5429 25.2933 80.4202 24.9147 80.1749 24.68C79.9295 24.4453 79.5669 24.328 79.0869 24.328C78.5962 24.328 78.1855 24.504 77.8549 24.856C77.5349 25.1973 77.3749 25.624 77.3749 26.136V31H75.1829V19.432ZM87.4001 31.192C86.7495 31.192 86.1521 31.0213 85.6081 30.68C85.0641 30.3387 84.7921 29.72 84.7921 28.824C84.7921 27.7467 85.2348 26.984 86.1201 26.536C87.0055 26.0773 88.2588 25.848 89.8801 25.848V25.256C89.8801 24.8827 89.7948 24.5947 89.6241 24.392C89.4641 24.1893 89.1548 24.088 88.6961 24.088C88.2055 24.088 87.8535 24.1627 87.6401 24.312C87.4375 24.4613 87.3361 24.6373 87.3361 24.84V25.08H85.2241C85.2135 25.016 85.2081 24.8987 85.2081 24.728C85.2081 24.024 85.5175 23.4587 86.1361 23.032C86.7655 22.6053 87.5975 22.392 88.6321 22.392C89.7841 22.392 90.6428 22.6267 91.2081 23.096C91.7841 23.5653 92.0721 24.2427 92.0721 25.128V28.84C92.0721 29.032 92.1255 29.176 92.2321 29.272C92.3388 29.3573 92.4721 29.4 92.6321 29.4H93.0801V30.936C92.7388 31.1067 92.3175 31.192 91.8161 31.192C91.3788 31.192 91.0108 31.096 90.7121 30.904C90.4241 30.712 90.2268 30.44 90.1201 30.088H90.0241C89.7148 30.4507 89.3575 30.728 88.9521 30.92C88.5575 31.1013 88.0401 31.192 87.4001 31.192ZM88.0881 29.464C88.7068 29.464 89.1601 29.2933 89.4481 28.952C89.7361 28.6 89.8801 28.136 89.8801 27.56V27.304C87.9708 27.304 87.0161 27.7307 87.0161 28.584C87.0161 28.8507 87.1015 29.064 87.2721 29.224C87.4535 29.384 87.7255 29.464 88.0881 29.464ZM97.1108 31.192C96.3214 31.192 95.7561 30.9787 95.4148 30.552C95.0734 30.1253 94.9028 29.5867 94.9028 28.936V24.376H93.8948V22.584H94.9508L95.3188 20.216H97.0948V22.584H98.5508V24.376H97.0948V28.712C97.0948 29.1707 97.3241 29.4 97.7828 29.4H98.5508V30.936C98.3694 31 98.1401 31.0587 97.8628 31.112C97.5961 31.1653 97.3454 31.192 97.1108 31.192Z" fill="#191F1C"/>
<path d="M26 3.5H100V0.5H26V3.5ZM100 48.5H26V51.5H100V48.5ZM26 48.5C13.5736 48.5 3.5 38.4264 3.5 26H0.5C0.5 40.0833 11.9167 51.5 26 51.5V48.5ZM122.5 26C122.5 38.4264 112.426 48.5 100 48.5V51.5C114.083 51.5 125.5 40.0833 125.5 26H122.5ZM100 3.5C112.426 3.5 122.5 13.5736 122.5 26H125.5C125.5 11.9167 114.083 0.5 100 0.5V3.5ZM26 0.5C11.9167 0.5 0.5 11.9167 0.5 26H3.5C3.5 13.5736 13.5736 3.5 26 3.5V0.5Z" fill="#191F1C"/>
</svg>
