<svg width="24" height="24" viewBox="0 0 24 24" fill="none" xmlns="http://www.w3.org/2000/svg">
<path d="M21.375 15.8301V10.3796L21.7437 10.4426V9.45569L19.2281 9.02972L18.0625 8.83474V8.10581L18.4312 8.1688V7.17889L18.0625 7.1189V7.1159L11.4688 6L7.75625 7.0889L5.57812 6.71993L2 7.76984V8.78675L5.64375 7.71884L6.00313 7.77884V15.8301H5.55312V8.1958L2.5125 9.08972V15.8301H2V17H22V15.8301H21.375ZM14.1031 9.61167L15.7906 9.89665V12.2214L14.1031 12.0325V9.61167ZM11.5312 6.99591L11.7844 7.03791V7.76984L11.3313 7.69185V7.43687L10.7688 7.59585L9.95 7.45787L11.5312 6.99591ZM11.1094 14.7982L9.42188 14.7232V12.4914L11.1094 12.6804V14.7982ZM11.1094 11.6995L9.42188 11.5105V8.81974L11.1094 9.10472V11.6995ZM11.7844 9.21871L13.4719 9.50368V11.9635L11.7844 11.7745V9.21871ZM14.6031 15.8271H12.8031V12.8664L14.6031 13.0674V15.8271ZM17.0344 15.8271H15.2344V13.1394L17.0344 13.3403V15.8271ZM18.0625 12.4764L16.375 12.2874V9.99564L18.0625 10.2806V12.4764ZM20.2906 15.2122L18.6031 15.1372V13.5173L20.2906 13.7063V15.2122ZM20.2906 12.7254L18.6031 12.5364V10.3736L20.2906 10.6586V12.7254Z" fill="#191F1C"/>
</svg>
